<mxfile host="app.diagrams.net" modified="2021-09-01T03:01:53.258Z" agent="5.0 (Macintosh; Intel Mac OS X 10_15_7) AppleWebKit/537.36 (KHTML, like Gecko) Chrome/92.0.4515.159 Safari/537.36" etag="brFf2khEKLbke3aqXrGu" version="15.0.4" type="github">
  <diagram id="fbovoJCxLlggfaWZBKzf" name="Page-1">
    <mxGraphModel dx="1186" dy="664" grid="1" gridSize="10" guides="1" tooltips="1" connect="1" arrows="1" fold="1" page="1" pageScale="1" pageWidth="827" pageHeight="1169" math="0" shadow="0">
      <root>
        <mxCell id="0" />
        <mxCell id="1" parent="0" />
        <mxCell id="TiJZ1aAyegq1EPtF1r0u-1" style="edgeStyle=orthogonalEdgeStyle;rounded=0;orthogonalLoop=1;jettySize=auto;html=1;exitX=1;exitY=0.25;exitDx=0;exitDy=0;curved=1;" edge="1" parent="1" target="TiJZ1aAyegq1EPtF1r0u-14">
          <mxGeometry relative="1" as="geometry">
            <mxPoint x="240" y="295" as="sourcePoint" />
          </mxGeometry>
        </mxCell>
        <mxCell id="TiJZ1aAyegq1EPtF1r0u-2" value="创建新人价活动" style="edgeLabel;html=1;align=center;verticalAlign=middle;resizable=0;points=[];" vertex="1" connectable="0" parent="TiJZ1aAyegq1EPtF1r0u-1">
          <mxGeometry x="0.1077" y="-4" relative="1" as="geometry">
            <mxPoint as="offset" />
          </mxGeometry>
        </mxCell>
        <mxCell id="TiJZ1aAyegq1EPtF1r0u-3" style="edgeStyle=orthogonalEdgeStyle;curved=1;rounded=0;orthogonalLoop=1;jettySize=auto;html=1;exitX=1;exitY=0.5;exitDx=0;exitDy=0;entryX=0;entryY=0.25;entryDx=0;entryDy=0;" edge="1" parent="1" target="TiJZ1aAyegq1EPtF1r0u-13">
          <mxGeometry relative="1" as="geometry">
            <mxPoint x="330" y="330" as="targetPoint" />
            <mxPoint x="240" y="310" as="sourcePoint" />
            <Array as="points">
              <mxPoint x="350" y="310" />
              <mxPoint x="350" y="375" />
            </Array>
          </mxGeometry>
        </mxCell>
        <mxCell id="TiJZ1aAyegq1EPtF1r0u-4" value="新人专享IC标" style="edgeLabel;html=1;align=center;verticalAlign=middle;resizable=0;points=[];" vertex="1" connectable="0" parent="TiJZ1aAyegq1EPtF1r0u-3">
          <mxGeometry x="-0.1226" y="-1" relative="1" as="geometry">
            <mxPoint as="offset" />
          </mxGeometry>
        </mxCell>
        <mxCell id="TiJZ1aAyegq1EPtF1r0u-5" value="限端标" style="edgeStyle=orthogonalEdgeStyle;curved=1;rounded=0;orthogonalLoop=1;jettySize=auto;html=1;exitX=1;exitY=0.75;exitDx=0;exitDy=0;entryX=0;entryY=0.75;entryDx=0;entryDy=0;" edge="1" parent="1" target="TiJZ1aAyegq1EPtF1r0u-13">
          <mxGeometry y="-10" relative="1" as="geometry">
            <mxPoint x="240" y="325" as="sourcePoint" />
            <Array as="points">
              <mxPoint x="320" y="325" />
              <mxPoint x="320" y="405" />
            </Array>
            <mxPoint as="offset" />
          </mxGeometry>
        </mxCell>
        <mxCell id="TiJZ1aAyegq1EPtF1r0u-6" style="edgeStyle=orthogonalEdgeStyle;curved=1;rounded=0;orthogonalLoop=1;jettySize=auto;html=1;exitX=1;exitY=1;exitDx=0;exitDy=0;entryX=0;entryY=0.5;entryDx=0;entryDy=0;" edge="1" parent="1" target="TiJZ1aAyegq1EPtF1r0u-15">
          <mxGeometry relative="1" as="geometry">
            <mxPoint x="240" y="340" as="sourcePoint" />
          </mxGeometry>
        </mxCell>
        <mxCell id="TiJZ1aAyegq1EPtF1r0u-7" value="同步首单免单商品" style="edgeLabel;html=1;align=center;verticalAlign=middle;resizable=0;points=[];" vertex="1" connectable="0" parent="TiJZ1aAyegq1EPtF1r0u-6">
          <mxGeometry x="-0.2444" relative="1" as="geometry">
            <mxPoint x="30" y="-32" as="offset" />
          </mxGeometry>
        </mxCell>
        <mxCell id="TiJZ1aAyegq1EPtF1r0u-8" style="edgeStyle=orthogonalEdgeStyle;curved=1;rounded=0;orthogonalLoop=1;jettySize=auto;html=1;exitX=0.5;exitY=1;exitDx=0;exitDy=0;entryX=0;entryY=0;entryDx=0;entryDy=52.5;entryPerimeter=0;" edge="1" parent="1" target="TiJZ1aAyegq1EPtF1r0u-19">
          <mxGeometry relative="1" as="geometry">
            <mxPoint x="180" y="340" as="sourcePoint" />
          </mxGeometry>
        </mxCell>
        <mxCell id="TiJZ1aAyegq1EPtF1r0u-9" value="离线写入新人专享+首单免单商品" style="edgeLabel;html=1;align=center;verticalAlign=middle;resizable=0;points=[];" vertex="1" connectable="0" parent="TiJZ1aAyegq1EPtF1r0u-8">
          <mxGeometry x="-0.2415" y="37" relative="1" as="geometry">
            <mxPoint as="offset" />
          </mxGeometry>
        </mxCell>
        <mxCell id="TiJZ1aAyegq1EPtF1r0u-10" value="提报" style="rounded=1;whiteSpace=wrap;html=1;" vertex="1" parent="1">
          <mxGeometry x="114" y="280" width="120" height="60" as="geometry" />
        </mxCell>
        <mxCell id="TiJZ1aAyegq1EPtF1r0u-11" style="edgeStyle=orthogonalEdgeStyle;curved=1;rounded=0;orthogonalLoop=1;jettySize=auto;html=1;exitX=1;exitY=0.75;exitDx=0;exitDy=0;entryX=0;entryY=0.75;entryDx=0;entryDy=0;" edge="1" parent="1" source="TiJZ1aAyegq1EPtF1r0u-13" target="TiJZ1aAyegq1EPtF1r0u-18">
          <mxGeometry relative="1" as="geometry" />
        </mxCell>
        <mxCell id="TiJZ1aAyegq1EPtF1r0u-12" value="获取新人专享商品信息" style="edgeLabel;html=1;align=center;verticalAlign=middle;resizable=0;points=[];" vertex="1" connectable="0" parent="TiJZ1aAyegq1EPtF1r0u-11">
          <mxGeometry x="-0.0182" y="-1" relative="1" as="geometry">
            <mxPoint as="offset" />
          </mxGeometry>
        </mxCell>
        <mxCell id="TiJZ1aAyegq1EPtF1r0u-13" value="商品" style="rounded=1;whiteSpace=wrap;html=1;" vertex="1" parent="1">
          <mxGeometry x="400" y="360" width="120" height="60" as="geometry" />
        </mxCell>
        <mxCell id="TiJZ1aAyegq1EPtF1r0u-14" value="促销" style="rounded=1;whiteSpace=wrap;html=1;" vertex="1" parent="1">
          <mxGeometry x="530" y="260" width="120" height="60" as="geometry" />
        </mxCell>
        <mxCell id="TiJZ1aAyegq1EPtF1r0u-15" value="会员" style="rounded=1;whiteSpace=wrap;html=1;" vertex="1" parent="1">
          <mxGeometry x="360" y="460" width="120" height="60" as="geometry" />
        </mxCell>
        <mxCell id="TiJZ1aAyegq1EPtF1r0u-16" style="edgeStyle=orthogonalEdgeStyle;curved=1;rounded=0;orthogonalLoop=1;jettySize=auto;html=1;exitX=0;exitY=0;exitDx=0;exitDy=0;entryX=1;entryY=0.25;entryDx=0;entryDy=0;" edge="1" parent="1" source="TiJZ1aAyegq1EPtF1r0u-18" target="TiJZ1aAyegq1EPtF1r0u-13">
          <mxGeometry relative="1" as="geometry" />
        </mxCell>
        <mxCell id="TiJZ1aAyegq1EPtF1r0u-17" value="查询标" style="edgeLabel;html=1;align=center;verticalAlign=middle;resizable=0;points=[];" vertex="1" connectable="0" parent="TiJZ1aAyegq1EPtF1r0u-16">
          <mxGeometry x="0.3263" y="2" relative="1" as="geometry">
            <mxPoint as="offset" />
          </mxGeometry>
        </mxCell>
        <mxCell id="TiJZ1aAyegq1EPtF1r0u-18" value="kaola-market-compose" style="rounded=1;whiteSpace=wrap;html=1;" vertex="1" parent="1">
          <mxGeometry x="650" y="400" width="120" height="60" as="geometry" />
        </mxCell>
        <mxCell id="TiJZ1aAyegq1EPtF1r0u-19" value="odps" style="shape=cylinder3;whiteSpace=wrap;html=1;boundedLbl=1;backgroundOutline=1;size=15;" vertex="1" parent="1">
          <mxGeometry x="310" y="530" width="60" height="80" as="geometry" />
        </mxCell>
        <mxCell id="TiJZ1aAyegq1EPtF1r0u-20" style="edgeStyle=orthogonalEdgeStyle;curved=1;rounded=0;orthogonalLoop=1;jettySize=auto;html=1;exitX=0;exitY=0.5;exitDx=0;exitDy=0;" edge="1" parent="1" source="TiJZ1aAyegq1EPtF1r0u-25" target="TiJZ1aAyegq1EPtF1r0u-19">
          <mxGeometry relative="1" as="geometry" />
        </mxCell>
        <mxCell id="TiJZ1aAyegq1EPtF1r0u-21" style="edgeStyle=orthogonalEdgeStyle;curved=1;rounded=0;orthogonalLoop=1;jettySize=auto;html=1;exitX=0.5;exitY=0;exitDx=0;exitDy=0;entryX=1;entryY=0.5;entryDx=0;entryDy=0;" edge="1" parent="1" source="TiJZ1aAyegq1EPtF1r0u-25" target="TiJZ1aAyegq1EPtF1r0u-15">
          <mxGeometry relative="1" as="geometry" />
        </mxCell>
        <mxCell id="TiJZ1aAyegq1EPtF1r0u-22" value="判断是否首单免单" style="edgeLabel;html=1;align=center;verticalAlign=middle;resizable=0;points=[];" vertex="1" connectable="0" parent="TiJZ1aAyegq1EPtF1r0u-21">
          <mxGeometry x="0.1739" y="7" relative="1" as="geometry">
            <mxPoint as="offset" />
          </mxGeometry>
        </mxCell>
        <mxCell id="TiJZ1aAyegq1EPtF1r0u-23" style="edgeStyle=orthogonalEdgeStyle;curved=1;rounded=0;orthogonalLoop=1;jettySize=auto;html=1;exitX=0.5;exitY=0;exitDx=0;exitDy=0;entryX=0.75;entryY=1;entryDx=0;entryDy=0;" edge="1" parent="1" source="TiJZ1aAyegq1EPtF1r0u-25" target="TiJZ1aAyegq1EPtF1r0u-13">
          <mxGeometry relative="1" as="geometry" />
        </mxCell>
        <mxCell id="TiJZ1aAyegq1EPtF1r0u-24" value="获取新人专享价" style="edgeLabel;html=1;align=center;verticalAlign=middle;resizable=0;points=[];" vertex="1" connectable="0" parent="TiJZ1aAyegq1EPtF1r0u-23">
          <mxGeometry x="-0.0552" relative="1" as="geometry">
            <mxPoint as="offset" />
          </mxGeometry>
        </mxCell>
        <mxCell id="TiJZ1aAyegq1EPtF1r0u-25" value="搜索" style="rounded=1;whiteSpace=wrap;html=1;" vertex="1" parent="1">
          <mxGeometry x="600" y="540" width="120" height="60" as="geometry" />
        </mxCell>
        <mxCell id="TiJZ1aAyegq1EPtF1r0u-26" style="edgeStyle=orthogonalEdgeStyle;curved=1;rounded=0;orthogonalLoop=1;jettySize=auto;html=1;exitX=0.5;exitY=1;exitDx=0;exitDy=0;entryX=0.5;entryY=0;entryDx=0;entryDy=0;" edge="1" parent="1" source="TiJZ1aAyegq1EPtF1r0u-30" target="TiJZ1aAyegq1EPtF1r0u-14">
          <mxGeometry relative="1" as="geometry" />
        </mxCell>
        <mxCell id="TiJZ1aAyegq1EPtF1r0u-27" value="获取新人价" style="edgeLabel;html=1;align=center;verticalAlign=middle;resizable=0;points=[];" vertex="1" connectable="0" parent="TiJZ1aAyegq1EPtF1r0u-26">
          <mxGeometry x="-0.0091" y="2" relative="1" as="geometry">
            <mxPoint as="offset" />
          </mxGeometry>
        </mxCell>
        <mxCell id="TiJZ1aAyegq1EPtF1r0u-28" style="edgeStyle=orthogonalEdgeStyle;curved=1;rounded=0;orthogonalLoop=1;jettySize=auto;html=1;exitX=0.5;exitY=1;exitDx=0;exitDy=0;" edge="1" parent="1" source="TiJZ1aAyegq1EPtF1r0u-30" target="TiJZ1aAyegq1EPtF1r0u-13">
          <mxGeometry relative="1" as="geometry">
            <Array as="points">
              <mxPoint x="420" y="295" />
              <mxPoint x="460" y="295" />
            </Array>
          </mxGeometry>
        </mxCell>
        <mxCell id="TiJZ1aAyegq1EPtF1r0u-29" value="是否限新人、限端" style="edgeLabel;html=1;align=center;verticalAlign=middle;resizable=0;points=[];" vertex="1" connectable="0" parent="TiJZ1aAyegq1EPtF1r0u-28">
          <mxGeometry x="-0.6353" y="1" relative="1" as="geometry">
            <mxPoint as="offset" />
          </mxGeometry>
        </mxCell>
        <mxCell id="TiJZ1aAyegq1EPtF1r0u-30" value="交易" style="rounded=1;whiteSpace=wrap;html=1;" vertex="1" parent="1">
          <mxGeometry x="360" y="170" width="120" height="60" as="geometry" />
        </mxCell>
        <mxCell id="TiJZ1aAyegq1EPtF1r0u-31" style="edgeStyle=orthogonalEdgeStyle;curved=1;rounded=0;orthogonalLoop=1;jettySize=auto;html=1;entryX=0;entryY=0.5;entryDx=0;entryDy=0;" edge="1" parent="1" source="TiJZ1aAyegq1EPtF1r0u-33" target="TiJZ1aAyegq1EPtF1r0u-10">
          <mxGeometry relative="1" as="geometry" />
        </mxCell>
        <mxCell id="TiJZ1aAyegq1EPtF1r0u-32" value="配置新人&lt;br&gt;专享商品" style="edgeLabel;html=1;align=center;verticalAlign=middle;resizable=0;points=[];" vertex="1" connectable="0" parent="TiJZ1aAyegq1EPtF1r0u-31">
          <mxGeometry x="-0.2" relative="1" as="geometry">
            <mxPoint x="4" y="-15" as="offset" />
          </mxGeometry>
        </mxCell>
        <mxCell id="TiJZ1aAyegq1EPtF1r0u-33" value="运营" style="shape=umlActor;verticalLabelPosition=bottom;verticalAlign=top;html=1;outlineConnect=0;" vertex="1" parent="1">
          <mxGeometry x="30" y="296" width="20" height="30" as="geometry" />
        </mxCell>
        <mxCell id="TiJZ1aAyegq1EPtF1r0u-34" style="edgeStyle=orthogonalEdgeStyle;curved=1;rounded=0;orthogonalLoop=1;jettySize=auto;html=1;entryX=0.5;entryY=0;entryDx=0;entryDy=0;" edge="1" parent="1" source="TiJZ1aAyegq1EPtF1r0u-36" target="TiJZ1aAyegq1EPtF1r0u-30">
          <mxGeometry relative="1" as="geometry" />
        </mxCell>
        <mxCell id="TiJZ1aAyegq1EPtF1r0u-35" value="下单" style="edgeLabel;html=1;align=center;verticalAlign=middle;resizable=0;points=[];" vertex="1" connectable="0" parent="TiJZ1aAyegq1EPtF1r0u-34">
          <mxGeometry x="0.025" y="-3" relative="1" as="geometry">
            <mxPoint as="offset" />
          </mxGeometry>
        </mxCell>
        <mxCell id="TiJZ1aAyegq1EPtF1r0u-36" value="用户" style="shape=umlActor;verticalLabelPosition=bottom;verticalAlign=top;html=1;outlineConnect=0;" vertex="1" parent="1">
          <mxGeometry x="360" y="100" width="20" height="30" as="geometry" />
        </mxCell>
        <mxCell id="TiJZ1aAyegq1EPtF1r0u-37" style="edgeStyle=orthogonalEdgeStyle;curved=1;rounded=0;orthogonalLoop=1;jettySize=auto;html=1;entryX=0.5;entryY=1;entryDx=0;entryDy=0;" edge="1" parent="1" source="TiJZ1aAyegq1EPtF1r0u-39" target="TiJZ1aAyegq1EPtF1r0u-25">
          <mxGeometry relative="1" as="geometry">
            <mxPoint x="660" y="610" as="targetPoint" />
          </mxGeometry>
        </mxCell>
        <mxCell id="TiJZ1aAyegq1EPtF1r0u-38" value="查询新人专享+首单免单云主题" style="edgeLabel;html=1;align=center;verticalAlign=middle;resizable=0;points=[];" vertex="1" connectable="0" parent="TiJZ1aAyegq1EPtF1r0u-37">
          <mxGeometry y="4" relative="1" as="geometry">
            <mxPoint as="offset" />
          </mxGeometry>
        </mxCell>
        <mxCell id="TiJZ1aAyegq1EPtF1r0u-39" value="用户" style="shape=umlActor;verticalLabelPosition=bottom;verticalAlign=top;html=1;outlineConnect=0;" vertex="1" parent="1">
          <mxGeometry x="650" y="640" width="20" height="30" as="geometry" />
        </mxCell>
        <mxCell id="TiJZ1aAyegq1EPtF1r0u-40" value="" style="endArrow=classic;html=1;shape=flexArrow;" edge="1" parent="1">
          <mxGeometry relative="1" as="geometry">
            <mxPoint x="213" y="891" as="sourcePoint" />
            <mxPoint x="338" y="891" as="targetPoint" />
          </mxGeometry>
        </mxCell>
        <mxCell id="TiJZ1aAyegq1EPtF1r0u-41" value="" style="endArrow=classic;html=1;shape=flexArrow;" edge="1" parent="1">
          <mxGeometry relative="1" as="geometry">
            <mxPoint x="388" y="891" as="sourcePoint" />
            <mxPoint x="488" y="891" as="targetPoint" />
          </mxGeometry>
        </mxCell>
        <mxCell id="TiJZ1aAyegq1EPtF1r0u-42" value="灰度阶段" style="edgeLabel;resizable=0;html=1;align=center;verticalAlign=middle;" connectable="0" vertex="1" parent="TiJZ1aAyegq1EPtF1r0u-41">
          <mxGeometry relative="1" as="geometry" />
        </mxCell>
        <mxCell id="TiJZ1aAyegq1EPtF1r0u-43" value="9.10" style="text;html=1;strokeColor=none;fillColor=none;align=center;verticalAlign=middle;whiteSpace=wrap;rounded=0;" vertex="1" parent="1">
          <mxGeometry x="338" y="881" width="40" height="20" as="geometry" />
        </mxCell>
        <mxCell id="TiJZ1aAyegq1EPtF1r0u-44" value="9.28" style="text;html=1;strokeColor=none;fillColor=none;align=center;verticalAlign=middle;whiteSpace=wrap;rounded=0;" vertex="1" parent="1">
          <mxGeometry x="488" y="881" width="40" height="20" as="geometry" />
        </mxCell>
        <mxCell id="TiJZ1aAyegq1EPtF1r0u-45" value="" style="endArrow=classic;html=1;shape=flexArrow;" edge="1" parent="1">
          <mxGeometry relative="1" as="geometry">
            <mxPoint x="538" y="891" as="sourcePoint" />
            <mxPoint x="638" y="891" as="targetPoint" />
          </mxGeometry>
        </mxCell>
        <mxCell id="TiJZ1aAyegq1EPtF1r0u-46" value="9.30" style="text;html=1;strokeColor=none;fillColor=none;align=center;verticalAlign=middle;whiteSpace=wrap;rounded=0;" vertex="1" parent="1">
          <mxGeometry x="639" y="881" width="40" height="20" as="geometry" />
        </mxCell>
        <mxCell id="TiJZ1aAyegq1EPtF1r0u-47" value="" style="endArrow=classic;html=1;shape=flexArrow;" edge="1" parent="1">
          <mxGeometry relative="1" as="geometry">
            <mxPoint x="79" y="891" as="sourcePoint" />
            <mxPoint x="179" y="891" as="targetPoint" />
          </mxGeometry>
        </mxCell>
        <mxCell id="TiJZ1aAyegq1EPtF1r0u-48" value="9.3" style="text;html=1;strokeColor=none;fillColor=none;align=center;verticalAlign=middle;whiteSpace=wrap;rounded=0;" vertex="1" parent="1">
          <mxGeometry x="179" y="881" width="40" height="20" as="geometry" />
        </mxCell>
        <mxCell id="TiJZ1aAyegq1EPtF1r0u-49" value="" style="endArrow=none;dashed=1;html=1;dashPattern=1 4;strokeWidth=2;strokeColor=#999999;" edge="1" parent="1">
          <mxGeometry width="50" height="50" relative="1" as="geometry">
            <mxPoint x="199" y="1121" as="sourcePoint" />
            <mxPoint x="199" y="871" as="targetPoint" />
          </mxGeometry>
        </mxCell>
        <mxCell id="TiJZ1aAyegq1EPtF1r0u-50" value="UPC接口支持新专享价查询，接口定义" style="text;html=1;strokeColor=none;fillColor=none;align=center;verticalAlign=middle;whiteSpace=wrap;rounded=0;" vertex="1" parent="1">
          <mxGeometry x="139" y="851" width="120" height="20" as="geometry" />
        </mxCell>
        <mxCell id="TiJZ1aAyegq1EPtF1r0u-51" value="&lt;span style=&quot;font-size: 8px ; background-color: rgb(255 , 255 , 255)&quot;&gt;UPC新人专享价查询接口&lt;/span&gt;可联调" style="text;html=1;strokeColor=none;fillColor=none;align=center;verticalAlign=middle;whiteSpace=wrap;rounded=0;" vertex="1" parent="1">
          <mxGeometry x="301" y="851" width="110" height="20" as="geometry" />
        </mxCell>
        <mxCell id="TiJZ1aAyegq1EPtF1r0u-52" value="" style="endArrow=none;dashed=1;html=1;dashPattern=1 4;strokeWidth=2;strokeColor=#999999;" edge="1" parent="1">
          <mxGeometry width="50" height="50" relative="1" as="geometry">
            <mxPoint x="353.6600000000001" y="1125" as="sourcePoint" />
            <mxPoint x="353.6600000000001" y="875" as="targetPoint" />
          </mxGeometry>
        </mxCell>
        <mxCell id="TiJZ1aAyegq1EPtF1r0u-53" value="" style="endArrow=classic;html=1;dashed=1;dashPattern=1 4;strokeColor=#030303;" edge="1" parent="1">
          <mxGeometry relative="1" as="geometry">
            <mxPoint x="59" y="951" as="sourcePoint" />
            <mxPoint x="349" y="951" as="targetPoint" />
          </mxGeometry>
        </mxCell>
        <mxCell id="TiJZ1aAyegq1EPtF1r0u-54" value="&lt;font style=&quot;font-size: 8px&quot;&gt;UPC新人专享价查询接口开发&lt;/font&gt;" style="edgeLabel;resizable=0;html=1;align=center;verticalAlign=middle;fontSize=6;" connectable="0" vertex="1" parent="TiJZ1aAyegq1EPtF1r0u-53">
          <mxGeometry relative="1" as="geometry">
            <mxPoint x="-5" y="-1" as="offset" />
          </mxGeometry>
        </mxCell>
        <mxCell id="TiJZ1aAyegq1EPtF1r0u-55" value="" style="endArrow=classic;html=1;dashed=1;dashPattern=1 4;strokeColor=#030303;" edge="1" parent="1">
          <mxGeometry relative="1" as="geometry">
            <mxPoint x="62" y="980" as="sourcePoint" />
            <mxPoint x="352" y="980" as="targetPoint" />
          </mxGeometry>
        </mxCell>
        <mxCell id="TiJZ1aAyegq1EPtF1r0u-56" value="用增侧对现有新人专享商品打标" style="edgeLabel;html=1;align=center;verticalAlign=middle;resizable=0;points=[];fontSize=6;" vertex="1" connectable="0" parent="TiJZ1aAyegq1EPtF1r0u-55">
          <mxGeometry x="-0.3843" y="3" relative="1" as="geometry">
            <mxPoint x="30" y="1" as="offset" />
          </mxGeometry>
        </mxCell>
        <mxCell id="TiJZ1aAyegq1EPtF1r0u-57" value="" style="endArrow=classic;html=1;dashed=1;dashPattern=1 4;fontSize=6;strokeColor=#030303;" edge="1" parent="1">
          <mxGeometry relative="1" as="geometry">
            <mxPoint x="40" y="1008" as="sourcePoint" />
            <mxPoint x="353" y="1008" as="targetPoint" />
          </mxGeometry>
        </mxCell>
        <mxCell id="TiJZ1aAyegq1EPtF1r0u-58" value="&lt;font color=&quot;#ff3333&quot;&gt;运营在促销系统对现有新人专享商品创建新人价活动&lt;/font&gt;" style="edgeLabel;resizable=0;html=1;align=center;verticalAlign=middle;" connectable="0" vertex="1" parent="TiJZ1aAyegq1EPtF1r0u-57">
          <mxGeometry relative="1" as="geometry">
            <mxPoint as="offset" />
          </mxGeometry>
        </mxCell>
        <mxCell id="TiJZ1aAyegq1EPtF1r0u-59" value="" style="endArrow=classic;html=1;dashed=1;dashPattern=1 4;fontSize=6;strokeColor=#030303;" edge="1" parent="1">
          <mxGeometry relative="1" as="geometry">
            <mxPoint x="201" y="1052" as="sourcePoint" />
            <mxPoint x="659" y="1052" as="targetPoint" />
          </mxGeometry>
        </mxCell>
        <mxCell id="TiJZ1aAyegq1EPtF1r0u-60" value="旧接口依赖方替换开发、上线" style="edgeLabel;resizable=0;html=1;align=center;verticalAlign=middle;" connectable="0" vertex="1" parent="TiJZ1aAyegq1EPtF1r0u-59">
          <mxGeometry relative="1" as="geometry" />
        </mxCell>
        <mxCell id="TiJZ1aAyegq1EPtF1r0u-61" value="" style="endArrow=none;dashed=1;html=1;dashPattern=1 4;strokeWidth=2;strokeColor=#999999;" edge="1" parent="1">
          <mxGeometry width="50" height="50" relative="1" as="geometry">
            <mxPoint x="507.6600000000001" y="1123" as="sourcePoint" />
            <mxPoint x="507.6600000000001" y="873" as="targetPoint" />
          </mxGeometry>
        </mxCell>
        <mxCell id="TiJZ1aAyegq1EPtF1r0u-62" value="限端能力上线" style="text;html=1;strokeColor=none;fillColor=none;align=center;verticalAlign=middle;whiteSpace=wrap;rounded=0;" vertex="1" parent="1">
          <mxGeometry x="604" y="847" width="110" height="20" as="geometry" />
        </mxCell>
        <mxCell id="TiJZ1aAyegq1EPtF1r0u-63" value="" style="endArrow=none;dashed=1;html=1;dashPattern=1 4;strokeWidth=2;strokeColor=#999999;" edge="1" parent="1">
          <mxGeometry width="50" height="50" relative="1" as="geometry">
            <mxPoint x="658.6600000000001" y="1120" as="sourcePoint" />
            <mxPoint x="658.6600000000001" y="870" as="targetPoint" />
          </mxGeometry>
        </mxCell>
        <mxCell id="TiJZ1aAyegq1EPtF1r0u-64" value="" style="endArrow=classic;html=1;dashed=1;dashPattern=1 4;fontSize=6;strokeColor=#030303;" edge="1" parent="1">
          <mxGeometry relative="1" as="geometry">
            <mxPoint x="495" y="1090" as="sourcePoint" />
            <mxPoint x="658" y="1090" as="targetPoint" />
          </mxGeometry>
        </mxCell>
        <mxCell id="TiJZ1aAyegq1EPtF1r0u-65" value="交易限端能力开发" style="edgeLabel;resizable=0;html=1;align=center;verticalAlign=middle;" connectable="0" vertex="1" parent="TiJZ1aAyegq1EPtF1r0u-64">
          <mxGeometry relative="1" as="geometry" />
        </mxCell>
        <mxCell id="TiJZ1aAyegq1EPtF1r0u-66" value="" style="endArrow=classic;html=1;dashed=1;dashPattern=1 4;fontSize=6;strokeColor=#030303;" edge="1" parent="1">
          <mxGeometry relative="1" as="geometry">
            <mxPoint x="356" y="952" as="sourcePoint" />
            <mxPoint x="510" y="952" as="targetPoint" />
          </mxGeometry>
        </mxCell>
        <mxCell id="TiJZ1aAyegq1EPtF1r0u-67" value="&lt;span style=&quot;font-size: 8px&quot;&gt;UPC新人专享价查询&lt;br&gt;接口&lt;/span&gt;灰度，上线" style="edgeLabel;html=1;align=center;verticalAlign=middle;resizable=0;points=[];fontSize=6;" vertex="1" connectable="0" parent="TiJZ1aAyegq1EPtF1r0u-66">
          <mxGeometry x="0.0343" y="-3" relative="1" as="geometry">
            <mxPoint x="-10" y="-3" as="offset" />
          </mxGeometry>
        </mxCell>
        <mxCell id="TiJZ1aAyegq1EPtF1r0u-68" value="新人专享价查询接口上线" style="text;html=1;strokeColor=none;fillColor=none;align=center;verticalAlign=middle;whiteSpace=wrap;rounded=0;" vertex="1" parent="1">
          <mxGeometry x="453" y="845" width="110" height="20" as="geometry" />
        </mxCell>
      </root>
    </mxGraphModel>
  </diagram>
</mxfile>
